<svg xmlns="http://www.w3.org/2000/svg" viewBox="0 0 32 32">
  <rect width="32" height="32" rx="7" fill="#FBF7EF" />
  <g fill="#FDFBF6" stroke="#EAD9C4" stroke-width="0.5">
    <ellipse cx="16" cy="8" rx="2.5" ry="5.6" transform="rotate(0 16 16)" />
    <ellipse cx="16" cy="8" rx="2.5" ry="5.6" transform="rotate(45 16 16)" />
    <ellipse cx="16" cy="8" rx="2.5" ry="5.6" transform="rotate(90 16 16)" />
    <ellipse cx="16" cy="8" rx="2.5" ry="5.6" transform="rotate(135 16 16)" />
    <ellipse cx="16" cy="8" rx="2.5" ry="5.6" transform="rotate(180 16 16)" />
    <ellipse cx="16" cy="8" rx="2.5" ry="5.6" transform="rotate(225 16 16)" />
    <ellipse cx="16" cy="8" rx="2.5" ry="5.6" transform="rotate(270 16 16)" />
    <ellipse cx="16" cy="8" rx="2.5" ry="5.6" transform="rotate(315 16 16)" />
  </g>
  <circle cx="16" cy="16" r="4.6" fill="#E5A33C" />
  <circle cx="14.6" cy="14.6" r="1.4" fill="#F6D58C" />
</svg>
